<?xml version="1.0" standalone="no"?>
<!DOCTYPE svg PUBLIC "-//W3C//DTD SVG 20010904//EN"
 "http://www.w3.org/TR/2001/REC-SVG-20010904/DTD/svg10.dtd">
<svg version="1.0" xmlns="http://www.w3.org/2000/svg"
 width="260.000000pt" height="260.000000pt" viewBox="0 0 260.000000 260.000000"
 preserveAspectRatio="xMidYMid meet">
<metadata>
Created by potrace 1.11, written by Peter Selinger 2001-2013
</metadata>
<g transform="translate(0.000000,260.000000) scale(0.100000,-0.100000)"
fill="#000000" stroke="none">
<path d="M1882 2219 c-109 -21 -234 -111 -283 -203 l-23 -44 -48 24 c-107 54
-232 66 -415 38 -367 -54 -536 -176 -752 -543 -131 -222 -237 -455 -315 -687
l-37 -112 3 -270 3 -270 30 -44 c35 -49 82 -83 134 -98 22 -6 283 -10 691 -10
679 0 680 0 680 40 0 8 -56 156 -125 328 -73 183 -125 326 -125 346 0 248 219
466 469 466 39 0 61 14 61 40 0 8 -39 64 -86 124 -46 60 -83 112 -81 115 54
97 62 127 62 221 0 91 -1 98 -38 164 l-38 69 32 33 c104 107 288 99 380 -16
19 -24 55 -66 81 -94 46 -50 47 -51 107 -51 68 0 102 23 122 82 16 49 6 85
-45 162 -103 154 -268 225 -444 190z m-818 -300 c34 -27 33 -41 -7 -86 -47
-53 -93 -122 -129 -196 -51 -100 -41 -220 26 -324 26 -41 59 -57 161 -77 95
-19 129 -41 133 -85 3 -24 -4 -38 -28 -62 -29 -30 -33 -31 -103 -27 -58 2 -87
10 -142 37 -84 42 -171 120 -197 179 -23 52 -27 144 -8 222 22 97 151 351 208
413 31 32 50 34 86 6z m227 -228 c33 -33 35 -50 14 -91 -36 -69 -125 -93 -164
-44 -31 39 -29 107 4 139 37 37 106 35 146 -4z m-753 -538 c6 -9 12 -21 12
-26 0 -15 -67 -77 -83 -77 -47 0 -65 86 -24 115 26 19 76 13 95 -12z m-218
-181 c18 -15 22 -25 16 -46 -8 -31 -59 -66 -87 -59 -19 5 -34 41 -31 78 3 43
63 59 102 27z m158 -265 c22 -17 13 -54 -19 -81 -54 -46 -93 -27 -87 41 2 28
9 41 26 49 24 12 58 8 80 -9z m-288 -205 c20 -16 21 -21 10 -43 -26 -50 -81
-74 -108 -47 -16 16 -16 80 0 96 18 18 73 14 98 -6z"/>
<path d="M1188 1673 c-34 -9 -37 -87 -5 -107 22 -14 65 9 87 46 13 24 13 29 0
42 -17 17 -57 26 -82 19z"/>
</g>
</svg>
